<svg xmlns="http://www.w3.org/2000/svg" width="43.158" height="47.704" viewBox="0 0 43.158 47.704">
  <g id="logo" transform="translate(0 -0.566)">
    <path id="패스_5" data-name="패스 5" d="M4237.147,270.965s-24.686,1.876-21.669,7.324,29.22,7.706,31.89,10.376-15.353,4.491-15.353,4.491,26.365,1.626,26.365-3.486-21.315-8.939-30.544-11.381S4237.147,270.965,4237.147,270.965Z" transform="translate(-4215.223 -245.133)" fill="#fff"/>
    <g id="그룹_3" data-name="그룹 3" transform="matrix(0.777, 0.629, -0.629, 0.777, 38.058, 0)">
      <path id="패스_4" data-name="패스 4" d="M2.855,0,0,6.264l2.855,3.993L5.669,6.264Z" transform="translate(5.669 31.835) rotate(180)" fill="#fff"/>
      <path id="패스_3" data-name="패스 3" d="M0,.429A5.07,5.07,0,0,1,1.863,0a5.389,5.389,0,0,1,1.9.429V25.389a6.066,6.066,0,0,1-1.847.336A6.812,6.812,0,0,1,0,25.389Z" transform="translate(0.899 0)" fill="#fff"/>
    </g>
  </g>
</svg>
